<svg width="107" height="119" viewBox="0 0 107 119" fill="none" xmlns="http://www.w3.org/2000/svg">
<path fill-rule="evenodd" clip-rule="evenodd" d="M0.99686 0.296779C-0.0134581 0.951549 0.00816602 0.585745 0.000809335 17.1588C-0.00587856 31.8277 0.021096 32.9765 0.383803 33.4633C0.598261 33.7512 3.95246 35.606 7.83746 37.5851L14.9012 41.1832L16.6644 43.5766C17.6343 44.8929 19.0265 46.6098 19.7584 47.3918C22.9291 50.7793 27.4279 53.0456 31.9841 53.5505C33.5147 53.7201 33.5647 53.7485 34.5928 55.0379C35.2679 55.8847 36.0613 56.5568 36.8221 56.9269C37.8906 57.4466 38.2221 57.4862 40.3018 57.3426C42.0989 57.2184 42.7382 57.2642 43.2323 57.553C44.3422 58.2017 45.5906 58.2669 48.1965 57.8127L50.7102 57.3743L58.2098 65.8853C64.93 73.5118 65.7832 74.3961 66.4196 74.3961C67.055 74.3961 67.8932 73.5342 74.3472 66.2431C82.7212 56.7833 82.8092 56.6442 82.811 52.898C82.8119 51.0791 82.718 50.5289 82.1879 49.245C81.3751 47.2762 79.8596 45.5557 78.1551 44.6672C77.0003 44.0651 76.5045 43.9567 74.8981 43.9557C72.2368 43.954 70.9527 44.6619 68.379 47.5485C66.5779 49.5687 66.4025 49.7035 66.067 49.3241C65.7312 48.945 65.7558 48.8404 66.3895 47.9458C68.0749 45.5666 68.5952 42.5615 67.7882 39.8691C67.3207 38.3092 67.3205 38.2958 67.7383 36.2161C68.3886 32.9788 68.4577 32.1051 68.208 30.2814C67.8201 27.4502 66.999 25.9575 62.8846 20.6012C60.8134 17.9048 58.6853 15.2791 58.1554 14.7667C56.9059 13.5579 55.2105 12.6626 53.6466 12.3855C52.9065 12.2544 46.7862 12.2862 38.6241 12.4635L24.8504 12.7628L13.5291 6.37764C7.30221 2.86572 2.03549 -0.00402666 1.82527 4.24122e-06C1.61482 0.00428707 1.24208 0.137811 0.99686 0.296779ZM38.33 16.5269C46.9592 16.3239 52.8292 16.2826 53.3778 16.4214C55.0788 16.8512 56.0035 17.7599 59.8503 22.7814C63.8245 27.9694 64.263 28.6841 64.6415 30.5935C64.9666 32.2323 64.5381 35.118 64.0049 34.8799C63.8042 34.7902 62.9881 34.5428 62.1911 34.3304C58.7881 33.4227 59.0783 33.5895 59.3097 32.6775C59.8062 30.7213 59.1836 29.2165 57.8774 29.2165C56.765 29.2165 56.2384 29.7979 55.927 31.3705C55.7241 32.3958 55.5672 32.7286 55.3347 32.6276C55.1608 32.5523 54.6278 32.4198 54.1502 32.3336C53.673 32.2475 53.1995 32.0492 53.0982 31.8932C52.997 31.7373 52.5311 30.4761 52.0627 29.0905C51.5941 27.7049 51.068 26.311 50.8932 25.993C50.4512 25.1891 49.6544 24.8928 48.8189 25.2219C47.5509 25.7214 47.4033 26.7909 48.27 29.2014C48.5832 30.0723 48.7988 30.8309 48.7491 30.8868C48.6994 30.943 47.9352 30.8167 47.0506 30.6066C46.166 30.3963 45.1292 30.2242 44.7466 30.2242C43.811 30.2242 43.0191 31.0903 43.0191 32.1137C43.0191 33.7016 43.265 33.8019 52.9473 36.1521C57.8475 37.3418 62.2078 38.5168 62.637 38.7632C64.0555 39.5784 64.8607 41.5581 64.5457 43.4559C64.3491 44.6397 63.2783 45.9699 62.1186 46.4702C61.2147 46.8605 60.8705 46.8348 53.8687 45.8568C49.8502 45.2955 46.2222 44.8362 45.8069 44.8362C45.3131 44.8362 43.7927 45.5363 41.4158 46.8585C37.1695 49.2203 35.4284 49.7514 32.6529 49.5312C29.2931 49.2644 26.0412 47.8579 23.1955 45.4406C22.3587 44.7296 20.8031 42.9122 19.451 41.0663L17.1379 37.9081L10.4049 34.4723L3.67202 31.0367L3.61428 18.1615L3.55654 5.28653L13.8691 11.0731L24.1816 16.8598L38.33 16.5269ZM77.347 48.7089C78.6761 49.7028 79.2452 50.9586 79.2452 52.898C79.2452 54.1514 79.13 54.7424 78.7539 55.4173C78.4837 55.9023 75.5977 59.3034 72.3404 62.9753L66.4183 69.6514L60.2148 62.5974C54.6215 56.2371 53.9835 55.4266 53.7276 54.3562C53.4139 53.0451 53.5597 51.2265 54.0372 50.4883C54.3266 50.0411 54.4496 50.0406 57.7836 50.4689C59.6794 50.7125 61.4717 50.844 61.7666 50.7614C62.215 50.6357 62.5745 50.9214 63.969 52.5103C66.3719 55.249 66.4228 55.2397 69.8842 51.4043C71.6616 49.4347 72.8587 48.3086 73.3572 48.1373C74.5528 47.7259 76.3835 47.9881 77.347 48.7089ZM48.4301 49.1548C50.4095 49.4418 50.4153 49.4448 50.2833 50.0996C50.2104 50.4611 50.0871 51.3519 50.0091 52.0792C49.9313 52.8066 49.8566 53.4021 49.843 53.4021C49.8296 53.4024 48.9658 53.5724 47.9236 53.7798C45.4047 54.2811 45.1717 54.2642 44.3902 53.521C43.0713 52.2669 43.3014 50.4777 44.914 49.4461C45.9587 48.7774 45.8744 48.7845 48.4301 49.1548ZM40.121 52.9129C40.121 53.3016 39.9648 53.4019 39.3591 53.4019C37.9459 53.4019 37.7346 53.1119 38.8091 52.6476C39.9113 52.1712 40.121 52.2138 40.121 52.9129ZM80.8414 72.2914C77.5962 72.9588 74.1894 74.6742 71.8148 76.8368L70.4373 78.0911L61.354 78.0927C55.8597 78.0934 51.9468 78.1957 51.451 78.3514C49.4924 78.9661 47.3101 81.3479 46.7748 83.455C46.6268 84.0382 46.4808 84.5544 46.4505 84.6023C46.4199 84.6499 42.7293 83.3124 38.2487 81.63C30.908 78.8736 29.9441 78.5706 28.5048 78.5653C25.7147 78.5554 23.3358 80.3134 22.0336 83.3474C21.6379 84.2693 21.5303 84.9668 21.5222 86.6568C21.51 89.3013 22.0492 90.8343 23.5808 92.5069C24.7026 93.732 54.8603 115.529 57.5236 117.04C60.1348 118.521 62.2089 118.981 65.626 118.838L68.5446 118.715L82.5457 114.527L96.5466 110.338H101.226C105.897 110.338 105.907 110.337 106.453 109.72L107 109.102V94.2147V79.3279L106.453 78.7096C105.909 78.0952 105.877 78.0911 101.549 78.0911H97.1933L95.8158 76.8368C92.6493 73.9532 88.6883 72.3202 84.4841 72.1645C83.0741 72.1123 81.4349 72.1695 80.8414 72.2914ZM86.8899 76.4657C88.6359 76.8617 91.6074 78.3141 92.8709 79.3888C93.2537 79.7143 94.0904 80.4626 94.7302 81.0513L95.8936 82.122H99.6634H103.433V94.2147V106.307H99.7612H96.0894L82.0941 110.498C69.1733 114.366 67.9166 114.697 65.7272 114.807C63.2333 114.933 61.9276 114.724 59.9404 113.879C59.2779 113.598 51.365 108.065 42.3566 101.585C27.8811 91.1717 25.9186 89.6853 25.4732 88.7962C24.5831 87.0203 24.9143 84.8633 26.276 83.5686C27.0797 82.8043 28.2788 82.3578 29.0249 82.5453C29.3038 82.6153 33.4592 84.1415 38.2594 85.937C46.5709 89.0456 46.9998 89.2361 47.2559 89.9349C47.6287 90.9517 49.5106 92.8805 50.7733 93.5398C51.8048 94.0782 52.0181 94.0888 61.9316 94.0888H72.0384L72.5765 93.3819C73.2248 92.5303 73.2622 91.7055 72.6886 90.9046L72.2628 90.3098L62.3781 90.1838C52.9134 90.0632 52.4604 90.036 51.7136 89.5399C50.558 88.7728 49.8901 87.3219 50.0011 85.8194C50.101 84.464 50.6066 83.5384 51.7112 82.6889C52.4473 82.1225 52.458 82.122 62.0935 82.122H71.7385L72.8168 81.1098C77.4163 76.7907 81.8604 75.3242 86.8899 76.4657Z" fill="#F178B6"/>
</svg>
