<svg width="124" height="48" viewBox="0 0 124 48" fill="none" xmlns="http://www.w3.org/2000/svg">
<path d="M57.0734 22.8125C57.4328 23 57.7922 23.2031 58.1516 23.4219C58.5266 23.6406 58.8703 23.8516 59.1828 24.0547C59.4953 24.2422 59.7531 24.4219 59.9562 24.5938C60.175 24.75 60.3156 24.875 60.3781 24.9688C60.4562 25.0938 60.4953 25.2891 60.4953 25.5547C60.4953 25.8047 60.4719 26.0859 60.425 26.3984C60.3937 26.6953 60.3391 26.9922 60.2609 27.2891C60.1828 27.5703 60.0969 27.7969 60.0031 27.9688C59.8937 28.1875 59.6437 28.4688 59.2531 28.8125C58.8781 29.1562 58.4562 29.5 57.9875 29.8438C57.5187 30.1875 57.0578 30.4922 56.6047 30.7578C56.1672 31.0234 55.8312 31.1875 55.5969 31.25C55.425 31.2969 55.1672 31.3438 54.8234 31.3906C54.4953 31.4375 54.1516 31.4766 53.7922 31.5078C53.4328 31.5391 53.1047 31.5625 52.8078 31.5781C52.5266 31.5781 52.3547 31.5625 52.2922 31.5312C52.1672 31.4531 52.0578 31.3359 51.9641 31.1797C51.8859 31.0234 51.8469 30.8203 51.8469 30.5703C51.8781 30.0234 51.9406 29.6484 52.0344 29.4453C52.0656 29.3984 52.1047 29.375 52.1516 29.375C52.1984 29.3594 52.2766 29.3516 52.3859 29.3516C52.4953 29.3516 52.6359 29.3516 52.8078 29.3516C52.9797 29.3516 53.2062 29.3438 53.4875 29.3281C53.4094 28.5312 53.3391 27.7734 53.2766 27.0547C53.2141 26.3359 53.1594 25.7031 53.1125 25.1562C53.05 24.5156 53.0031 23.9141 52.9719 23.3516C52.9406 22.8047 52.8937 22.1953 52.8312 21.5234C52.7844 20.9453 52.7297 20.2734 52.6672 19.5078C52.6047 18.7422 52.5344 17.9141 52.4562 17.0234C52.3156 17.0234 52.1516 17.0234 51.9641 17.0234C51.7766 17.0234 51.5891 17.0234 51.4016 17.0234C51.2297 17.0078 51.0812 16.9922 50.9562 16.9766C50.8156 16.9453 50.7297 16.9062 50.6984 16.8594C50.6359 16.7656 50.5891 16.5938 50.5578 16.3438C50.5266 16.0781 50.5109 15.8203 50.5109 15.5703C50.5109 15.3047 50.5578 15.0469 50.6516 14.7969C50.7453 14.5312 50.8547 14.3594 50.9797 14.2812C51.0109 14.2656 51.1359 14.2656 51.3547 14.2812C51.5734 14.2812 51.8391 14.3047 52.1516 14.3516C52.4641 14.3828 52.8 14.4297 53.1594 14.4922C53.5344 14.5391 53.8859 14.5938 54.2141 14.6562C54.5422 14.7031 54.8312 14.75 55.0812 14.7969C55.3312 14.8438 55.5031 14.875 55.5969 14.8906C55.7531 14.9219 56.05 15.0078 56.4875 15.1484C56.9406 15.2734 57.425 15.4219 57.9406 15.5938C58.4562 15.7656 58.9484 15.9609 59.4172 16.1797C59.8859 16.3828 60.2141 16.5859 60.4016 16.7891C60.4797 16.8672 60.55 17.0859 60.6125 17.4453C60.6906 17.8047 60.7453 18.2031 60.7766 18.6406C60.8234 19.0781 60.8391 19.4922 60.8234 19.8828C60.8234 20.2578 60.7844 20.5078 60.7062 20.6328C60.6437 20.7266 60.425 20.8906 60.05 21.125C59.675 21.3594 59.2609 21.6016 58.8078 21.8516C58.2922 22.1328 57.7141 22.4531 57.0734 22.8125ZM55.2922 22.3438C55.4953 22.25 55.7687 22.0625 56.1125 21.7812C56.4719 21.5 56.8234 21.1875 57.1672 20.8438C57.5266 20.4844 57.8312 20.125 58.0812 19.7656C58.3469 19.3906 58.4797 19.0703 58.4797 18.8047C58.4797 18.7266 58.3937 18.625 58.2219 18.5C58.0656 18.375 57.8469 18.25 57.5656 18.125C57.2844 18 56.9484 17.875 56.5578 17.75C56.1828 17.6094 55.7766 17.4844 55.3391 17.375L55.2922 22.3438ZM55.2687 29.0703C55.7062 28.9766 56.1203 28.8281 56.5109 28.625C56.9016 28.4219 57.2453 28.2031 57.5422 27.9688C57.8391 27.7188 58.0734 27.4688 58.2453 27.2188C58.4172 26.9688 58.5031 26.7422 58.5031 26.5391C58.5031 26.3359 58.3703 26.1094 58.1047 25.8594C57.8547 25.6094 57.55 25.3594 57.1906 25.1094C56.8469 24.8594 56.4953 24.6328 56.1359 24.4297C55.7766 24.2266 55.4953 24.0781 55.2922 23.9844L55.2687 29.0703ZM63.2994 25.2266C63.5494 25.1328 63.8306 25.0312 64.1431 24.9219C64.4712 24.7969 64.7837 24.6875 65.0806 24.5938C65.3775 24.4844 65.6431 24.3906 65.8775 24.3125C66.1119 24.2344 66.2837 24.1719 66.3931 24.125C66.3775 23.9531 66.3541 23.7578 66.3228 23.5391C66.3072 23.3047 66.2837 23.0859 66.2525 22.8828C66.2212 22.6641 66.1822 22.4766 66.1353 22.3203C66.0884 22.1641 66.0416 22.0703 65.9947 22.0391C65.8697 21.9922 65.6587 21.9531 65.3619 21.9219C65.0806 21.875 64.7837 21.8828 64.4712 21.9453C64.1744 22.0078 63.9009 22.125 63.6509 22.2969C63.4009 22.4688 63.2603 22.7422 63.2291 23.1172C63.1978 23.3672 63.19 23.6797 63.2056 24.0547C63.2212 24.4297 63.2525 24.8203 63.2994 25.2266ZM68.3853 25.6016C68.3697 25.6328 68.1822 25.6953 67.8228 25.7891C67.4634 25.8828 67.0337 25.9844 66.5337 26.0938C66.0337 26.1875 65.5025 26.2891 64.94 26.3984C64.3775 26.4922 63.8931 26.5703 63.4869 26.6328C63.565 27.2578 63.6587 27.8203 63.7681 28.3203C63.8775 28.8047 63.9712 29.1094 64.0494 29.2344C64.1275 29.3438 64.2291 29.4453 64.3541 29.5391C64.4634 29.6172 64.5962 29.6953 64.7525 29.7734C64.9244 29.8359 65.1275 29.8828 65.3619 29.9141C65.5337 29.9609 65.6978 29.8984 65.8541 29.7266C65.9791 29.5703 66.0884 29.2969 66.1822 28.9062C66.2916 28.5156 66.3462 27.8984 66.3462 27.0547C66.8306 26.9766 67.2056 26.9297 67.4712 26.9141C67.7525 26.8984 67.9556 26.8984 68.0806 26.9141C68.2369 26.9297 68.3306 26.9531 68.3619 26.9844C68.3775 27.0312 68.3775 27.1484 68.3619 27.3359C68.3462 27.5234 68.3072 27.7578 68.2447 28.0391C68.1978 28.3047 68.1353 28.6016 68.0572 28.9297C67.9947 29.2422 67.9166 29.5469 67.8228 29.8438C67.7291 30.125 67.6275 30.3828 67.5181 30.6172C67.4087 30.8359 67.2916 30.9922 67.1666 31.0859C66.7916 31.3672 66.3228 31.5078 65.7603 31.5078C65.1978 31.4922 64.6431 31.4141 64.0962 31.2734C63.5494 31.1172 63.0572 30.9375 62.6197 30.7344C62.1822 30.5156 61.9087 30.3359 61.7994 30.1953C61.7212 30.1016 61.6509 29.8672 61.5884 29.4922C61.5259 29.1016 61.4712 28.6328 61.4244 28.0859C61.3931 27.5391 61.3697 26.9375 61.3541 26.2812C61.3384 25.625 61.3462 24.9844 61.3775 24.3594C61.4244 23.7344 61.4869 23.1562 61.565 22.625C61.6587 22.0938 61.7837 21.6641 61.94 21.3359C62.1744 20.8672 62.5572 20.4844 63.0884 20.1875C63.6197 19.8906 64.1822 19.6875 64.7759 19.5781C65.3697 19.4688 65.9322 19.4531 66.4634 19.5312C67.0103 19.6094 67.4166 19.7812 67.6822 20.0469C67.8384 20.2031 67.9791 20.5156 68.1041 20.9844C68.2291 21.4375 68.3072 21.9922 68.3384 22.6484C68.3384 22.7109 68.3462 22.8906 68.3619 23.1875C68.3775 23.4844 68.3853 23.8047 68.3853 24.1484C68.4009 24.4766 68.4087 24.7891 68.4087 25.0859C68.4087 25.3828 68.4009 25.5547 68.3853 25.6016ZM71.4941 31.8594C71.3847 31.8906 71.2597 31.8516 71.1191 31.7422C70.9784 31.6328 70.8378 31.5 70.6972 31.3438C70.5722 31.1719 70.4628 30.9922 70.3691 30.8047C70.2753 30.6172 70.2128 30.4609 70.1816 30.3359C70.0722 28.9609 69.9784 27.7344 69.9003 26.6562C69.8378 25.5625 69.7831 24.5938 69.7362 23.75C69.6894 22.9062 69.6503 22.1797 69.6191 21.5703C69.6034 20.9453 69.5956 20.4141 69.5956 19.9766C69.58 18.9609 69.5956 18.2578 69.6425 17.8672C69.6894 17.5859 69.8144 17.3047 70.0175 17.0234C70.2362 16.7422 70.4628 16.5 70.6972 16.2969C70.9472 16.0938 71.1737 15.9375 71.3769 15.8281C71.5956 15.7188 71.7362 15.6875 71.7987 15.7344C71.8612 15.7812 71.9081 16.0469 71.9394 16.5312C71.9706 17 71.9941 17.6172 72.0097 18.3828C72.0253 19.1484 72.0253 20.0078 72.0097 20.9609C72.0097 21.9141 71.9941 22.8906 71.9628 23.8906C71.9472 24.8906 71.9237 25.8672 71.8925 26.8203C71.8612 27.7734 71.8222 28.625 71.7753 29.375C71.7284 30.1094 71.6816 30.7031 71.6347 31.1562C71.5878 31.6094 71.5409 31.8438 71.4941 31.8594ZM75.7981 21.9219C75.8294 22 75.845 22.25 75.845 22.6719C75.8606 23.0781 75.8606 23.5781 75.845 24.1719C75.845 24.75 75.8294 25.375 75.7981 26.0469C75.7669 26.7031 75.7278 27.3281 75.6809 27.9219C75.6497 28.5 75.6106 29 75.5637 29.4219C75.5169 29.8281 75.47 30.0703 75.4231 30.1484C75.2825 30.3672 75.0716 30.5078 74.7903 30.5703C74.5091 30.6172 74.3059 30.625 74.1809 30.5938C74.1184 30.5938 74.0481 30.4141 73.97 30.0547C73.9075 29.6953 73.845 29.2422 73.7825 28.6953C73.72 28.1484 73.6653 27.5547 73.6184 26.9141C73.5716 26.2734 73.5325 25.6641 73.5012 25.0859C73.47 24.4922 73.4544 23.9766 73.4544 23.5391C73.4544 23.1016 73.47 22.8203 73.5012 22.6953C73.5481 22.4922 73.6809 22.3125 73.8997 22.1562C74.1341 22 74.3762 21.8828 74.6262 21.8047C74.8919 21.7266 75.1341 21.6953 75.3528 21.7109C75.5872 21.7109 75.7356 21.7812 75.7981 21.9219ZM75.9153 18.125C75.9778 18.25 76.0012 18.4219 75.9856 18.6406C75.9856 18.8594 75.9622 19.0859 75.9153 19.3203C75.8684 19.5547 75.8059 19.7812 75.7278 20C75.6497 20.2188 75.5716 20.3906 75.4934 20.5156C75.3372 20.7344 75.1028 20.875 74.7903 20.9375C74.4934 20.9844 74.2747 20.9922 74.1341 20.9609C74.0247 20.9453 73.9153 20.875 73.8059 20.75C73.6966 20.6094 73.6028 20.4453 73.5247 20.2578C73.4466 20.0547 73.3919 19.8359 73.3606 19.6016C73.3294 19.3672 73.3372 19.1484 73.3841 18.9453C73.4309 18.7422 73.5794 18.5625 73.8294 18.4062C74.0794 18.2344 74.345 18.1094 74.6262 18.0312C74.9075 17.9375 75.1731 17.8984 75.4231 17.9141C75.6731 17.9141 75.8372 17.9844 75.9153 18.125ZM82.3522 17.6797C82.3522 17.7422 82.2662 17.9922 82.0944 18.4297C81.9225 18.8672 81.7037 19.4062 81.4381 20.0469C81.1725 20.6875 80.8756 21.3906 80.5475 22.1562C80.2194 22.9062 79.9069 23.625 79.61 24.3125C79.3287 25 79.0787 25.6016 78.86 26.1172C78.6412 26.6328 78.5006 26.9766 78.4381 27.1484C78.7975 27.1016 79.1569 27.0625 79.5162 27.0312C79.8756 26.9844 80.1959 26.9531 80.4772 26.9375C80.7741 26.9062 81.0162 26.8906 81.2037 26.8906C81.3912 26.875 81.4928 26.875 81.5084 26.8906C81.5553 26.9531 81.5553 27.0859 81.5084 27.2891C81.4616 27.4766 81.3912 27.6875 81.2975 27.9219C81.2037 28.1562 81.0944 28.3828 80.9694 28.6016C80.86 28.8203 80.7662 28.9766 80.6881 29.0703C80.6569 29.1172 80.485 29.1562 80.1725 29.1875C79.8756 29.2188 79.5397 29.2422 79.1647 29.2578C78.7897 29.2734 78.4303 29.2812 78.0866 29.2812C77.7428 29.2812 77.5241 29.2734 77.4303 29.2578C77.2584 29.2266 77.0944 29.0625 76.9381 28.7656C76.7975 28.4688 76.7116 28.1875 76.6803 27.9219C76.6647 27.7969 76.7037 27.5469 76.7975 27.1719C76.9069 26.7969 77.0475 26.3594 77.2194 25.8594C77.3912 25.3438 77.5866 24.7969 77.8053 24.2188C78.0397 23.625 78.2584 23.0469 78.4616 22.4844C78.6803 21.9219 78.8756 21.4062 79.0475 20.9375C79.2194 20.4531 79.3522 20.0625 79.4459 19.7656C78.8053 19.8125 78.3131 19.8516 77.9694 19.8828C77.6256 19.9141 77.3678 19.9375 77.1959 19.9531C77.0397 19.9688 76.9381 19.9766 76.8912 19.9766C76.8444 19.9609 76.8131 19.9375 76.7975 19.9062C76.735 19.8125 76.6725 19.6406 76.61 19.3906C76.5631 19.1406 76.5241 18.875 76.4928 18.5938C76.4772 18.3125 76.4694 18.0547 76.4694 17.8203C76.485 17.5703 76.5241 17.4062 76.5866 17.3281C76.6178 17.2812 76.7819 17.2422 77.0787 17.2109C77.3756 17.1797 77.735 17.1562 78.1569 17.1406C78.5944 17.125 79.0553 17.125 79.5397 17.1406C80.0241 17.1406 80.4694 17.1641 80.8756 17.2109C81.2975 17.2422 81.6412 17.2969 81.9069 17.375C82.1881 17.4531 82.3366 17.5547 82.3522 17.6797ZM83.9375 25.2266C84.1875 25.1328 84.4688 25.0312 84.7812 24.9219C85.1094 24.7969 85.4219 24.6875 85.7188 24.5938C86.0156 24.4844 86.2812 24.3906 86.5156 24.3125C86.75 24.2344 86.9219 24.1719 87.0312 24.125C87.0156 23.9531 86.9922 23.7578 86.9609 23.5391C86.9453 23.3047 86.9219 23.0859 86.8906 22.8828C86.8594 22.6641 86.8203 22.4766 86.7734 22.3203C86.7266 22.1641 86.6797 22.0703 86.6328 22.0391C86.5078 21.9922 86.2969 21.9531 86 21.9219C85.7188 21.875 85.4219 21.8828 85.1094 21.9453C84.8125 22.0078 84.5391 22.125 84.2891 22.2969C84.0391 22.4688 83.8984 22.7422 83.8672 23.1172C83.8359 23.3672 83.8281 23.6797 83.8438 24.0547C83.8594 24.4297 83.8906 24.8203 83.9375 25.2266ZM89.0234 25.6016C89.0078 25.6328 88.8203 25.6953 88.4609 25.7891C88.1016 25.8828 87.6719 25.9844 87.1719 26.0938C86.6719 26.1875 86.1406 26.2891 85.5781 26.3984C85.0156 26.4922 84.5312 26.5703 84.125 26.6328C84.2031 27.2578 84.2969 27.8203 84.4062 28.3203C84.5156 28.8047 84.6094 29.1094 84.6875 29.2344C84.7656 29.3438 84.8672 29.4453 84.9922 29.5391C85.1016 29.6172 85.2344 29.6953 85.3906 29.7734C85.5625 29.8359 85.7656 29.8828 86 29.9141C86.1719 29.9609 86.3359 29.8984 86.4922 29.7266C86.6172 29.5703 86.7266 29.2969 86.8203 28.9062C86.9297 28.5156 86.9844 27.8984 86.9844 27.0547C87.4688 26.9766 87.8438 26.9297 88.1094 26.9141C88.3906 26.8984 88.5938 26.8984 88.7188 26.9141C88.875 26.9297 88.9688 26.9531 89 26.9844C89.0156 27.0312 89.0156 27.1484 89 27.3359C88.9844 27.5234 88.9453 27.7578 88.8828 28.0391C88.8359 28.3047 88.7734 28.6016 88.6953 28.9297C88.6328 29.2422 88.5547 29.5469 88.4609 29.8438C88.3672 30.125 88.2656 30.3828 88.1562 30.6172C88.0469 30.8359 87.9297 30.9922 87.8047 31.0859C87.4297 31.3672 86.9609 31.5078 86.3984 31.5078C85.8359 31.4922 85.2812 31.4141 84.7344 31.2734C84.1875 31.1172 83.6953 30.9375 83.2578 30.7344C82.8203 30.5156 82.5469 30.3359 82.4375 30.1953C82.3594 30.1016 82.2891 29.8672 82.2266 29.4922C82.1641 29.1016 82.1094 28.6328 82.0625 28.0859C82.0312 27.5391 82.0078 26.9375 81.9922 26.2812C81.9766 25.625 81.9844 24.9844 82.0156 24.3594C82.0625 23.7344 82.125 23.1562 82.2031 22.625C82.2969 22.0938 82.4219 21.6641 82.5781 21.3359C82.8125 20.8672 83.1953 20.4844 83.7266 20.1875C84.2578 19.8906 84.8203 19.6875 85.4141 19.5781C86.0078 19.4688 86.5703 19.4531 87.1016 19.5312C87.6484 19.6094 88.0547 19.7812 88.3203 20.0469C88.4766 20.2031 88.6172 20.5156 88.7422 20.9844C88.8672 21.4375 88.9453 21.9922 88.9766 22.6484C88.9766 22.7109 88.9844 22.8906 89 23.1875C89.0156 23.4844 89.0234 23.8047 89.0234 24.1484C89.0391 24.4766 89.0469 24.7891 89.0469 25.0859C89.0469 25.3828 89.0391 25.5547 89.0234 25.6016ZM103.702 25.4609C103.733 25.5234 103.733 25.6953 103.702 25.9766C103.671 26.2422 103.616 26.5312 103.538 26.8438C103.475 27.1562 103.405 27.4531 103.327 27.7344C103.264 28 103.217 28.1562 103.186 28.2031C103.108 28.2031 103.022 28.2031 102.928 28.2031C102.85 28.1875 102.772 28.1797 102.694 28.1797C102.616 28.1797 102.53 28.1719 102.436 28.1562C102.389 28.8125 102.335 29.4297 102.272 30.0078C102.21 30.5703 102.147 31.0547 102.085 31.4609C102.022 31.8672 101.967 32.1875 101.921 32.4219C101.874 32.6719 101.827 32.7969 101.78 32.7969C101.655 32.8281 101.514 32.7734 101.358 32.6328C101.217 32.5078 101.077 32.3516 100.936 32.1641C100.796 31.9766 100.671 31.7812 100.561 31.5781C100.452 31.3594 100.389 31.1719 100.374 31.0156C100.358 30.7031 100.342 30.375 100.327 30.0312C100.327 29.6719 100.319 29.3438 100.303 29.0469C100.288 28.7031 100.28 28.3594 100.28 28.0156C99.9831 27.9844 99.6941 27.9609 99.4128 27.9453C99.1316 27.9141 98.8503 27.8828 98.5691 27.8516C98.4284 27.8203 98.2878 27.8047 98.1472 27.8047C98.0066 27.7891 97.8737 27.7656 97.7487 27.7344C97.7175 28.4531 97.6862 29.1172 97.655 29.7266C97.6237 30.3359 97.5847 30.8672 97.5378 31.3203C97.5066 31.7734 97.4675 32.125 97.4206 32.375C97.3894 32.6406 97.3503 32.7812 97.3034 32.7969C97.1784 32.8125 97.03 32.7578 96.8581 32.6328C96.6862 32.5078 96.5222 32.3516 96.3659 32.1641C96.2253 31.9766 96.0925 31.7812 95.9675 31.5781C95.8581 31.375 95.7956 31.1953 95.78 31.0391C95.7487 30.6328 95.7175 30.2188 95.6862 29.7969C95.655 29.3594 95.6237 28.9609 95.5925 28.6016C95.5612 28.1797 95.53 27.7656 95.4987 27.3594C95.3737 27.3438 95.2487 27.3203 95.1237 27.2891C95.0144 27.2578 94.8972 27.2344 94.7722 27.2188C94.6628 27.2031 94.5612 27.1797 94.4675 27.1484C94.405 27.1172 94.3191 27.0547 94.2097 26.9609C94.1003 26.8516 93.9909 26.7344 93.8816 26.6094C93.7722 26.4844 93.6784 26.3672 93.6003 26.2578C93.5222 26.1328 93.4831 26.0391 93.4831 25.9766C93.4831 25.9453 93.655 25.9062 93.9987 25.8594C94.3581 25.8125 94.8269 25.7734 95.405 25.7422C95.3425 24.8359 95.28 23.9141 95.2175 22.9766C95.1706 22.0234 95.1316 21.1406 95.1003 20.3281C95.0691 19.5 95.0534 18.7812 95.0534 18.1719C95.0534 17.5469 95.0769 17.1172 95.1237 16.8828C95.1862 16.5547 95.3347 16.2422 95.5691 15.9453C95.8191 15.6328 96.0847 15.3594 96.3659 15.125C96.6472 14.8906 96.9128 14.7109 97.1628 14.5859C97.4128 14.4609 97.5769 14.4219 97.655 14.4688C97.7019 14.5156 97.7409 14.7031 97.7722 15.0312C97.8191 15.3594 97.8503 15.7969 97.8659 16.3438C97.8972 16.8906 97.9128 17.5234 97.9128 18.2422C97.9128 18.9609 97.9128 19.7266 97.9128 20.5391C97.9128 21.3359 97.8972 22.1719 97.8659 23.0469C97.8503 23.9062 97.8347 24.7578 97.8191 25.6016C98.2253 25.5703 98.6237 25.5469 99.0144 25.5312C99.4206 25.5156 99.8191 25.4922 100.21 25.4609C100.194 24.5703 100.178 23.6641 100.163 22.7422C100.163 21.8203 100.163 20.9609 100.163 20.1641C100.163 19.3672 100.178 18.6719 100.21 18.0781C100.241 17.4844 100.28 17.0703 100.327 16.8359C100.405 16.5078 100.569 16.1953 100.819 15.8984C101.085 15.6016 101.358 15.3438 101.639 15.125C101.936 14.8906 102.21 14.7188 102.46 14.6094C102.725 14.5 102.897 14.4766 102.975 14.5391C103.053 14.5859 103.1 14.9531 103.116 15.6406C103.132 16.3125 103.116 17.1641 103.069 18.1953C103.038 19.2266 102.983 20.3828 102.905 21.6641C102.842 22.9297 102.764 24.1797 102.671 25.4141C103.296 25.4141 103.639 25.4297 103.702 25.4609ZM106.529 25.2266C106.779 25.1328 107.061 25.0312 107.373 24.9219C107.701 24.7969 108.014 24.6875 108.311 24.5938C108.607 24.4844 108.873 24.3906 109.107 24.3125C109.342 24.2344 109.514 24.1719 109.623 24.125C109.607 23.9531 109.584 23.7578 109.553 23.5391C109.537 23.3047 109.514 23.0859 109.482 22.8828C109.451 22.6641 109.412 22.4766 109.365 22.3203C109.318 22.1641 109.272 22.0703 109.225 22.0391C109.1 21.9922 108.889 21.9531 108.592 21.9219C108.311 21.875 108.014 21.8828 107.701 21.9453C107.404 22.0078 107.131 22.125 106.881 22.2969C106.631 22.4688 106.49 22.7422 106.459 23.1172C106.428 23.3672 106.42 23.6797 106.436 24.0547C106.451 24.4297 106.482 24.8203 106.529 25.2266ZM111.615 25.6016C111.6 25.6328 111.412 25.6953 111.053 25.7891C110.693 25.8828 110.264 25.9844 109.764 26.0938C109.264 26.1875 108.732 26.2891 108.17 26.3984C107.607 26.4922 107.123 26.5703 106.717 26.6328C106.795 27.2578 106.889 27.8203 106.998 28.3203C107.107 28.8047 107.201 29.1094 107.279 29.2344C107.357 29.3438 107.459 29.4453 107.584 29.5391C107.693 29.6172 107.826 29.6953 107.982 29.7734C108.154 29.8359 108.357 29.8828 108.592 29.9141C108.764 29.9609 108.928 29.8984 109.084 29.7266C109.209 29.5703 109.318 29.2969 109.412 28.9062C109.522 28.5156 109.576 27.8984 109.576 27.0547C110.061 26.9766 110.436 26.9297 110.701 26.9141C110.982 26.8984 111.186 26.8984 111.311 26.9141C111.467 26.9297 111.561 26.9531 111.592 26.9844C111.607 27.0312 111.607 27.1484 111.592 27.3359C111.576 27.5234 111.537 27.7578 111.475 28.0391C111.428 28.3047 111.365 28.6016 111.287 28.9297C111.225 29.2422 111.147 29.5469 111.053 29.8438C110.959 30.125 110.857 30.3828 110.748 30.6172C110.639 30.8359 110.522 30.9922 110.397 31.0859C110.022 31.3672 109.553 31.5078 108.99 31.5078C108.428 31.4922 107.873 31.4141 107.326 31.2734C106.779 31.1172 106.287 30.9375 105.85 30.7344C105.412 30.5156 105.139 30.3359 105.029 30.1953C104.951 30.1016 104.881 29.8672 104.818 29.4922C104.756 29.1016 104.701 28.6328 104.654 28.0859C104.623 27.5391 104.6 26.9375 104.584 26.2812C104.568 25.625 104.576 24.9844 104.607 24.3594C104.654 23.7344 104.717 23.1562 104.795 22.625C104.889 22.0938 105.014 21.6641 105.17 21.3359C105.404 20.8672 105.787 20.4844 106.318 20.1875C106.85 19.8906 107.412 19.6875 108.006 19.5781C108.6 19.4688 109.162 19.4531 109.693 19.5312C110.24 19.6094 110.647 19.7812 110.912 20.0469C111.068 20.2031 111.209 20.5156 111.334 20.9844C111.459 21.4375 111.537 21.9922 111.568 22.6484C111.568 22.7109 111.576 22.8906 111.592 23.1875C111.607 23.4844 111.615 23.8047 111.615 24.1484C111.631 24.4766 111.639 24.7891 111.639 25.0859C111.639 25.3828 111.631 25.5547 111.615 25.6016ZM114.724 31.8594C114.615 31.8906 114.49 31.8516 114.349 31.7422C114.208 31.6328 114.068 31.5 113.927 31.3438C113.802 31.1719 113.693 30.9922 113.599 30.8047C113.505 30.6172 113.443 30.4609 113.412 30.3359C113.302 28.9609 113.208 27.7344 113.13 26.6562C113.068 25.5625 113.013 24.5938 112.966 23.75C112.919 22.9062 112.88 22.1797 112.849 21.5703C112.833 20.9453 112.826 20.4141 112.826 19.9766C112.81 18.9609 112.826 18.2578 112.872 17.8672C112.919 17.5859 113.044 17.3047 113.247 17.0234C113.466 16.7422 113.693 16.5 113.927 16.2969C114.177 16.0938 114.404 15.9375 114.607 15.8281C114.826 15.7188 114.966 15.6875 115.029 15.7344C115.091 15.7812 115.138 16.0469 115.169 16.5312C115.201 17 115.224 17.6172 115.24 18.3828C115.255 19.1484 115.255 20.0078 115.24 20.9609C115.24 21.9141 115.224 22.8906 115.193 23.8906C115.177 24.8906 115.154 25.8672 115.122 26.8203C115.091 27.7734 115.052 28.625 115.005 29.375C114.958 30.1094 114.912 30.7031 114.865 31.1562C114.818 31.6094 114.771 31.8438 114.724 31.8594ZM122.239 17.6797C122.395 17.7734 122.544 17.9453 122.684 18.1953C122.841 18.4297 122.981 18.7109 123.106 19.0391C123.231 19.3516 123.333 19.6953 123.411 20.0703C123.489 20.4297 123.528 20.7734 123.528 21.1016C123.528 21.4453 123.466 21.9219 123.341 22.5312C123.231 23.125 123.098 23.7266 122.942 24.3359C122.786 24.9453 122.637 25.4922 122.497 25.9766C122.356 26.4609 122.262 26.75 122.216 26.8438C122.122 27.2031 121.997 27.4609 121.841 27.6172C121.684 27.7422 121.473 27.8359 121.208 27.8984C120.958 27.9453 120.7 27.9766 120.434 27.9922C120.169 28.0078 119.911 28.0078 119.661 27.9922C119.411 27.9609 119.216 27.9219 119.075 27.875C119.059 27.875 119.005 27.8594 118.911 27.8281C118.911 28.4531 118.903 29.0938 118.887 29.75C118.872 30.3125 118.856 30.9453 118.841 31.6484C118.825 32.3359 118.809 33.0312 118.794 33.7344C118.762 33.875 118.7 34.0391 118.606 34.2266C118.528 34.4141 118.427 34.5859 118.302 34.7422C118.177 34.9141 118.044 35.0547 117.903 35.1641C117.778 35.2734 117.661 35.3125 117.552 35.2812C117.489 35.2656 117.419 34.9922 117.341 34.4609C117.278 33.9453 117.208 33.2578 117.13 32.3984C117.067 31.5547 116.997 30.5859 116.919 29.4922C116.841 28.3984 116.77 27.2812 116.708 26.1406C116.645 25 116.591 23.8828 116.544 22.7891C116.512 21.6797 116.481 20.6953 116.45 19.8359C116.434 18.9609 116.434 18.25 116.45 17.7031C116.466 17.1406 116.505 16.8359 116.567 16.7891C116.614 16.7422 116.708 16.75 116.848 16.8125C116.989 16.8594 117.145 16.9531 117.317 17.0938C117.505 17.2188 117.692 17.3828 117.88 17.5859C118.083 17.7734 118.262 17.9844 118.419 18.2188C119.184 17.875 119.911 17.6328 120.598 17.4922C121.286 17.3516 121.833 17.4141 122.239 17.6797ZM121.255 21.125C121.255 20.875 121.216 20.6328 121.137 20.3984C121.075 20.1484 120.989 19.9375 120.88 19.7656C120.77 19.5781 120.653 19.4375 120.528 19.3438C120.419 19.2344 120.317 19.1953 120.223 19.2266C119.833 19.3203 119.505 19.4297 119.239 19.5547C119.098 19.6172 118.981 19.6875 118.887 19.7656C118.919 20.2656 118.934 20.9531 118.934 21.8281C118.95 22.6875 118.958 23.6328 118.958 24.6641C118.958 25.1172 118.973 25.4219 119.005 25.5781C119.02 25.9531 119.114 26.2109 119.286 26.3516C119.333 26.3984 119.403 26.4531 119.497 26.5156C119.591 26.5625 119.692 26.6094 119.802 26.6562C119.911 26.6875 120.02 26.7109 120.13 26.7266C120.239 26.7266 120.333 26.6953 120.411 26.6328C120.427 26.6172 120.458 26.4766 120.505 26.2109C120.567 25.9297 120.63 25.5938 120.692 25.2031C120.755 24.7969 120.817 24.3672 120.88 23.9141C120.958 23.4453 121.02 23.0156 121.067 22.625C121.13 22.2188 121.177 21.875 121.208 21.5938C121.239 21.3125 121.255 21.1562 121.255 21.125Z" fill="white"/>
<path fill-rule="evenodd" clip-rule="evenodd" d="M14.8778 0.239626C4.7623 1.06333 0.62934 5.23094 0.0843504 15.1571C-0.26997 21.623 0.402389 24.0699 3.82748 28.7748C5.48407 31.0502 7.08893 32.2882 9.59619 33.2242C13.2274 34.5804 14.0078 36.0436 11.7183 37.2048C10.7325 37.7051 12.3798 37.8954 17.8212 37.9109C24.9014 37.9297 25.255 37.8631 24.8721 36.5862C24.5116 35.386 24.8482 35.2414 27.9954 35.2414C29.936 35.2414 32.434 34.8796 33.5472 34.4379C35.8406 33.5281 37.7712 30.7208 37.7712 28.2967C37.7712 27.399 38.2923 26.2882 38.9291 25.8276C40.6143 24.6099 40.3703 23.9724 37.7712 22.8018C35.1026 21.5995 34.9019 20.336 36.743 16.3278C37.8152 13.9938 37.8816 13.0417 37.1421 10.6331C36.3964 8.20301 36.4566 7.43377 37.5196 5.81998C38.361 4.54374 38.6049 3.27019 38.2467 2.02825C37.7257 0.219457 37.6454 0.193232 35.8367 1.22539C33.5348 2.53928 31.043 2.58097 27.6372 1.36121C23.786 -0.0179083 21.0193 -0.261321 14.8778 0.239626ZM9.20945 42.3017C9.20945 44.3358 9.37541 46 9.57843 46C9.78145 46 11.8657 45.1803 14.2101 44.1791L18.4727 42.3575L22.7354 44.1791C25.0797 45.1803 27.164 46 27.367 46C27.57 46 27.736 44.3358 27.736 42.3017C27.736 40.2677 27.57 38.6035 27.367 38.6035C27.164 38.6035 25.1469 39.3942 22.8836 40.3611L18.7691 42.1188L14.7867 40.3611C12.5967 39.3942 10.4461 38.6035 10.0069 38.6035C9.5545 38.6035 9.20945 40.2051 9.20945 42.3017Z" fill="white"/>
<path d="M19.0756 41.9598C19.3274 42.0637 19.3216 42.4224 19.0665 42.518L9.09806 46.257C8.89999 46.3313 8.68931 46.1828 8.69274 45.9713L8.81932 38.1718C8.82276 37.9602 9.03815 37.8186 9.2337 37.8993L19.0756 41.9598Z" fill="#F178B6"/>
<path d="M17.709 42.2912C17.4555 42.1914 17.4555 41.8327 17.709 41.733L27.6155 37.8327C27.8123 37.7552 28.0254 37.9003 28.0254 38.1118L28.0254 45.9124C28.0254 46.1239 27.8123 46.269 27.6155 46.1915L17.709 42.2912Z" fill="#F178B6"/>
</svg>
