<svg width="96" height="112" viewBox="0 0 96 112" fill="none" xmlns="http://www.w3.org/2000/svg">
<path fill-rule="evenodd" clip-rule="evenodd" d="M47.3444 0.124906C46.0155 0.262522 42.4001 1.06765 41.105 1.51463C40.1568 1.84172 39.276 1.94477 37.4291 1.94477C34.5738 1.94477 33.0734 2.28323 30.8921 3.4196C27.9155 4.97035 25.5223 7.97319 24.2497 11.7536C23.6888 13.4196 23.6844 13.4861 23.6096 21.5959L23.5343 29.761L22.904 30.7575C22.1458 31.9563 21.7291 33.7888 21.9287 35.0459C22.1175 36.2346 22.8988 37.9663 23.646 38.8522C24.5279 39.8977 26.577 40.8365 28.3621 41.0129C29.8315 41.1582 29.8706 41.1781 30.003 41.8456C30.6796 45.2551 32.4632 48.5415 35.0503 51.1451C36.7052 52.8102 36.8719 53.0555 36.8719 53.8252C36.8719 54.291 36.8029 54.6721 36.7187 54.6721C36.1395 54.6721 26.6933 56.4834 26.3715 56.6563C25.5239 57.1111 25.5505 58.6682 26.4166 59.3141C26.9763 59.7315 27.0044 59.7291 31.9079 58.8437C34.6186 58.3543 36.8885 57.9539 36.952 57.9539C37.0154 57.9539 37.2352 58.5532 37.44 59.2854C38.1679 61.8864 40.52 64.652 43.0653 65.8998C44.3962 66.5522 46.7248 67.1352 47.9989 67.1352C49.272 67.1352 51.6008 66.5524 52.9356 65.8998C54.4388 65.1646 56.4352 63.3721 57.3447 61.9406C57.7056 61.3724 58.2139 60.2676 58.4742 59.4854C58.7345 58.7032 58.975 58.0349 59.0088 58.0003C59.0873 57.9193 75.9295 60.9305 77.2346 61.2589C77.7746 61.3947 79.1087 61.9316 80.1992 62.4524C83.5552 64.0543 86.5785 67.3144 88.1642 71.0412C88.5063 71.8453 88.7888 72.6263 88.7921 72.7766C88.7967 72.9851 87.8969 73.0501 85.0041 73.0501H81.2104L81.0621 72.2297C80.6641 70.0289 79.0671 67.8666 77.1532 66.9377C75.5378 66.1533 73.9711 66.0054 68.3007 66.1019C62.0218 66.2085 61.5468 66.32 59.5747 68.1511C58.2883 69.3452 57.5636 70.6255 57.266 72.2297L57.1137 73.0501H53.7943C50.0437 73.0501 50.0286 73.0565 49.2061 74.9645C48.9857 75.4758 48.7342 75.8943 48.6471 75.8943C48.5603 75.8943 48.281 75.4095 48.0268 74.8172C47.2473 72.9996 47.3943 73.0501 42.8805 73.0501H38.8841L38.7393 72.2297C38.4853 70.7909 37.5546 69.1818 36.3245 68.0544C34.4397 66.3268 33.9121 66.2076 27.6971 66.1019C22.0267 66.0054 20.46 66.1533 18.8446 66.9377C16.9307 67.8666 15.3337 70.0289 14.9357 72.2297L14.7874 73.0501H10.9937C8.10091 73.0501 7.20115 72.9851 7.20573 72.7766C7.209 72.6263 7.49154 71.8453 7.83364 71.0412C9.88341 66.2238 14.1638 62.4346 18.9188 61.2285C20.7318 60.7686 21.3813 60.2711 21.3813 59.3419C21.3813 58.6669 20.4672 57.7351 19.805 57.7351C19.0623 57.7351 16.3532 58.5234 14.9357 59.152C10.0658 61.3118 5.82816 66.217 4.15103 71.6357C3.71839 73.0341 3.6045 73.1967 2.76692 73.6117C1.70723 74.1368 0.55177 75.5517 0.228213 76.7202C-0.0623983 77.7695 -0.0735257 87.6 0.21534 88.1411C0.33381 88.3631 0.775619 88.7585 1.19714 89.0197C2.00963 89.5231 2.1894 89.8966 1.61953 89.8966C1.43037 89.8966 0.988559 90.1843 0.637731 90.5361L0 91.1756V99.3169C0 104.974 0.079198 107.723 0.259412 108.326C0.4021 108.804 0.943179 109.668 1.462 110.246C2.80139 111.74 3.68741 111.994 7.56594 111.994C11.2512 111.994 11.1253 112.063 12.3545 109.367C12.7974 108.395 13.2298 107.678 13.3153 107.773C13.4011 107.869 13.6435 108.668 13.854 109.55C14.497 112.243 12.9202 111.994 29.3566 111.994C43.4122 111.994 43.5832 111.989 44.1514 111.54C44.9464 110.913 44.9464 109.793 44.1514 109.166C43.5841 108.718 43.401 108.712 30.3141 108.712H17.0516L16.826 108.001C16.7021 107.61 16.3473 106.256 16.0382 104.993C15.2901 101.937 15.129 101.576 14.3711 101.262C13.1735 100.764 12.826 101.144 10.8593 105.097L9.06045 108.712H6.80428C4.60157 108.712 4.53306 108.697 3.91038 108.073L3.27265 107.433V100.08V92.7262L4.86513 91.9884C6.78094 91.101 7.03031 90.8321 6.9413 89.7478C6.87715 88.969 6.75061 88.8302 5.08003 87.7087L3.28771 86.5054L3.28007 82.1735C3.27243 77.6632 3.42276 76.7916 4.26427 76.4678C4.45844 76.3932 6.9029 76.3319 9.69622 76.3319H14.7752L14.9026 77.4109C15.0706 78.8331 15.6891 80.0038 16.8079 81.0172C18.5357 82.5824 18.4373 82.5673 26.8358 82.5673C35.2343 82.5673 35.1359 82.5824 36.8636 81.0172C37.9837 80.0025 38.6009 78.8328 38.7696 77.4053L38.8977 76.3205L42.0377 76.3809L45.1779 76.4413L46.2635 78.8254C47.3943 81.3095 47.7692 81.7829 48.6133 81.7945C49.5429 81.8074 49.8765 81.4055 51.0471 78.8615L52.2113 76.3319H54.6564H57.1015L57.2289 77.4109C57.3969 78.8331 58.0154 80.0038 59.1342 81.0172C60.862 82.5824 60.7636 82.5673 69.1621 82.5673C77.5606 82.5673 77.4622 82.5824 79.1899 81.0172C80.3087 80.0038 80.9273 78.8331 81.0952 77.4109L81.2227 76.3319H86.3016C89.0949 76.3319 91.5394 76.3932 91.7336 76.4678C92.4943 76.7605 92.7254 77.7361 92.7215 80.642L92.7178 83.4424L90.4474 85.4115C86.8905 88.4964 86.8942 89.0129 90.4867 90.9741L92.7208 92.1939L92.723 94.6149L92.7252 97.036L91.8533 97.5274C90.5015 98.2892 89.821 99.3374 89.7139 100.822C89.6035 102.353 89.9209 103.05 91.5579 104.866C92.9492 106.41 93.0625 107.095 92.0874 108.073L91.4497 108.712H87.3279H83.2061L81.9112 107.083C79.7554 104.37 78.9192 104.379 77.2724 107.133L76.3281 108.712H63.2785C50.8535 108.712 50.2049 108.732 49.7249 109.122C49.0243 109.69 49.0243 111.016 49.7249 111.585C50.2056 111.975 50.8692 111.994 63.9644 111.994C72.4901 111.994 77.8507 111.913 78.0979 111.78C78.3172 111.663 78.7642 111.108 79.0917 110.548L79.6871 109.529L80.2585 110.269C81.6869 112.119 81.2203 111.994 86.6764 111.994C92.4878 111.994 93.0889 111.86 94.5358 110.246C95.6114 109.047 95.9978 107.987 95.9978 106.237C95.9978 105.096 95.9278 104.932 94.9381 103.746C94.3552 103.048 93.6679 102.289 93.4109 102.06C92.5932 101.331 92.8026 100.73 94.1413 99.9618C95.9956 98.8979 95.9978 98.8918 95.9978 94.5812C95.9978 90.1961 96.0126 90.2327 93.7377 89.0215L92.2995 88.2557L94.1496 86.5054L96 84.7551L95.9976 81.1452C95.9965 79.1597 95.8937 77.1685 95.7696 76.7202C95.4491 75.5624 94.2982 74.16 93.2263 73.6207C92.3846 73.1974 92.2711 73.0348 91.8422 71.6357C89.9648 65.5118 85.1638 60.4551 79.3902 58.5195C78.1558 58.1057 60.202 54.6721 59.2728 54.6721C59.192 54.6721 59.1259 54.2765 59.1259 53.793C59.1259 52.9866 59.2667 52.7741 60.8266 51.2223C63.3828 48.6796 65.0843 45.6671 65.8759 42.2827L66.1384 41.161L67.6396 41.0124C69.4206 40.8365 71.4708 39.8966 72.3518 38.8522C74.3141 36.5256 74.6252 33.3315 73.1333 30.8245L72.5475 29.8399L72.6186 25.5736C72.7223 19.3671 72.0324 15.5725 70.0926 11.6807C68.1881 7.85964 64.7156 4.33741 60.9804 2.43769C57.2802 0.555914 51.9353 -0.350734 47.3444 0.124906ZM55.4169 3.9204C62.012 5.5066 66.8719 10.3862 68.6557 17.2134C69.1272 19.0179 69.2282 19.9782 69.3246 23.5831L69.4383 27.8278L68.7275 27.6853C68.3365 27.6068 67.6361 27.5427 67.1712 27.5427H66.3258V25.2454C66.3258 21.9103 66.0816 21.7344 62.4156 22.4264C59.7521 22.9292 55.5906 22.7467 52.7549 22.0026C50.1693 21.3244 46.5339 19.8075 43.9969 18.3487C42.9551 17.7498 41.8461 17.2598 41.5321 17.2598C41.1281 17.2598 40.5139 17.6829 39.4309 18.7075C37.351 20.675 35.5048 21.539 32.6321 21.889C29.7153 22.2444 29.6721 22.2934 29.6721 25.2454V27.5427L28.7448 27.5458C28.2347 27.5473 27.5968 27.6081 27.3267 27.6805L26.8358 27.8125L26.839 21.3876C26.8425 14.2972 26.9741 13.2466 28.1577 10.8544C29.491 8.15959 31.3948 6.47319 34.0356 5.64728C35.1461 5.30006 35.9743 5.21233 37.8537 5.24274C39.6318 5.2714 40.5072 5.18695 41.2326 4.91719C42.6699 4.38248 45.3361 3.72809 47.0466 3.49027C49.2056 3.19009 53.243 3.3975 55.4169 3.9204ZM48.2557 10.3829C47.5274 10.6898 47.2023 11.4372 47.4292 12.2824C47.6167 12.9801 50.7634 16.5868 51.3948 16.8277C52.0662 17.0836 56.2135 15.7038 56.7805 15.0356C57.6242 14.0416 56.9448 12.4465 55.6774 12.4465C55.3408 12.4465 54.4545 12.6532 53.7079 12.9061L52.3507 13.3658L51.8676 12.7421C50.8749 11.4608 49.7201 10.3033 49.3333 10.2017C49.1134 10.1442 48.6283 10.2256 48.2557 10.3829ZM32.3281 12.9527C31.3603 13.9859 32.0899 15.7283 33.4901 15.7283C34.3194 15.7283 35.1265 14.919 35.1265 14.0874C35.1265 12.6646 33.2942 11.9216 32.3281 12.9527ZM43.6947 21.8796C44.682 22.375 45.5226 22.8099 45.5625 22.846C45.6027 22.8821 45.1362 23.3941 44.5262 23.9837C43.3517 25.119 43.2005 25.6036 43.7678 26.4157C44.5236 27.4976 45.4281 27.4145 47.006 26.118C47.5167 25.6983 47.9904 25.3548 48.0587 25.3548C48.1268 25.3548 48.2468 25.6491 48.3255 26.0086C48.4861 26.7415 49.3651 27.5427 50.0088 27.5427C50.2418 27.5427 50.7294 27.2449 51.0924 26.8809C51.6143 26.3575 51.7228 26.1002 51.6104 25.6511C51.4828 25.1417 51.5201 25.0962 51.9717 25.21C54.4572 25.8355 56.8231 26.0558 59.8498 25.9438L63.0828 25.8241L63.0023 33.5206C62.9253 40.872 62.8993 41.2805 62.4219 42.6389C61.5121 45.2282 60.6414 46.5974 58.5807 48.6796C56.9562 50.3209 56.2811 50.8313 54.7578 51.57C52.4124 52.707 50.4545 53.1605 47.8898 53.1605C42.0505 53.1605 37.1082 50.1113 34.5594 44.9361C33.0656 41.9029 32.9528 41.0343 32.9484 32.5201L32.9447 25.136H33.44C34.3245 25.136 37.1651 24.2465 38.4166 23.5776C39.0879 23.2188 40.1195 22.4918 40.709 21.9619C41.2985 21.4322 41.8075 20.9942 41.8402 20.989C41.8729 20.9835 42.7075 21.3843 43.6947 21.8796ZM29.6721 34.325V37.8256L29.0721 37.8243C27.1964 37.8206 25.4883 36.4777 25.2027 34.7819C24.8706 32.8115 26.6996 30.8245 28.8456 30.8245H29.6721V34.325ZM68.9522 31.3167C70.218 31.9569 70.9961 33.3565 70.801 34.6432C70.5257 36.46 69.3691 37.525 67.421 37.7565L66.3258 37.8867V34.3555V30.8245H67.1522C67.6069 30.8245 68.4168 31.0459 68.9522 31.3167ZM40.647 33.2742C39.9377 33.6177 39.6401 34.6523 40.032 35.4122C40.3743 36.0758 40.7598 36.2941 41.5904 36.2941C42.294 36.2941 43.199 35.3711 43.199 34.6532C43.199 34.3415 42.9579 33.8448 42.6634 33.5494C42.097 32.9813 41.4372 32.8913 40.647 33.2742ZM53.3344 33.5494C53.0399 33.8448 52.7988 34.3415 52.7988 34.6532C52.7988 35.3711 53.7038 36.2941 54.4074 36.2941C55.238 36.2941 55.6235 36.0758 55.9659 35.4122C56.8202 33.7551 54.6564 32.2236 53.3344 33.5494ZM46.908 42.8505C45.76 43.0997 44.8912 43.4908 44.3444 44.0043C43.2627 45.0204 44.0733 46.9461 45.4899 46.7254C45.8499 46.6694 46.5616 46.4659 47.0717 46.2731C47.9219 45.952 48.0759 45.952 48.9262 46.2731C50.4789 46.8597 51.1055 46.8809 51.6534 46.3655C52.3112 45.7467 52.3096 44.6213 51.6503 44.0002C50.6489 43.0568 48.4324 42.5194 46.908 42.8505ZM42.5445 55.7028C45.7556 56.7587 50.2915 56.6946 53.7127 55.5451C54.7838 55.1852 55.7176 54.8909 55.7883 54.8909C55.8587 54.8909 55.8585 55.584 55.7878 56.4312C55.5603 59.1537 54.021 61.6 51.7707 62.8151C46.7182 65.544 40.6937 62.2156 40.2098 56.4281C40.0821 54.9027 40.0972 54.8266 40.4917 54.9911C40.7207 55.0867 41.6445 55.407 42.5445 55.7028ZM32.5561 69.5592C33.6413 69.8615 34.6639 70.7588 35.1527 71.8378C35.4594 72.5145 35.5543 73.2658 35.558 75.0415C35.5624 77.0992 35.5065 77.4451 35.0643 78.1045C34.7796 78.5294 34.2418 78.96 33.8098 79.1092C32.8607 79.4369 21.1968 79.4929 20.0561 79.1752C19.6272 79.0558 19.0381 78.704 18.7471 78.3937C18.264 77.8787 18.2112 77.6166 18.1427 75.3929C18.1015 74.0528 18.1724 72.6055 18.3007 72.1767C18.5935 71.1959 19.7607 70.0462 20.8632 69.6522C21.8999 69.2815 31.2909 69.2069 32.5561 69.5592ZM74.9047 69.5653C76.0148 69.8744 77.3915 71.153 77.6899 72.1522C77.8261 72.6075 77.8976 74.0134 77.8551 75.3929C77.7866 77.6166 77.7338 77.8787 77.2508 78.3937C76.9597 78.704 76.3706 79.0558 75.9417 79.1752C74.8011 79.4929 63.1371 79.4369 62.188 79.1092C61.7561 78.96 61.2182 78.5294 60.9335 78.1045C60.4913 77.4451 60.4354 77.0992 60.4398 75.0415C60.4466 71.7766 61.162 70.3772 63.196 69.65C64.2404 69.2765 73.624 69.2087 74.9047 69.5653ZM19.6056 86.3768L19.0905 86.7949V93.2878V99.7807L19.6056 100.199C20.2728 100.741 20.9624 100.729 21.6791 100.164C22.2403 99.721 22.254 99.6505 22.254 97.21V94.7099H24.5449H26.8358V96.7741C26.8358 98.9471 27.0461 99.8492 27.6624 100.319C28.217 100.741 29.0906 100.676 29.6308 100.171C30.1012 99.7317 30.1084 99.6282 30.1084 93.2793C30.1084 87.1253 30.0886 86.8137 29.6721 86.396C29.2019 85.9246 28.3586 85.8283 27.717 86.1727C27.1137 86.4965 26.8358 87.5775 26.8358 89.601V91.4281H24.5449H22.254V89.1689C22.254 87.0905 22.2137 86.8719 21.7492 86.4341C21.1258 85.8471 20.2856 85.8246 19.6056 86.3768ZM38.686 86.1788C38.424 86.2847 38.1048 86.5673 37.977 86.8069C37.8284 87.0854 37.7446 89.4593 37.7446 93.3928V99.5431L38.2802 100.08C38.7962 100.598 38.9234 100.617 41.7809 100.617C44.6383 100.617 44.7655 100.598 45.2815 100.08C45.9642 99.3956 45.9642 98.5568 45.2815 97.8724C44.7965 97.3859 44.5703 97.3353 42.8816 97.3353H41.0173V96.132V94.9287H42.7247C44.2273 94.9287 44.4889 94.8679 44.9065 94.4224C45.5776 93.7059 45.5331 92.6739 44.8059 92.1004C44.3425 91.7348 43.9194 91.6469 42.6241 91.6469H41.0173V90.4436V89.2402H42.9649C44.8094 89.2402 44.9368 89.2096 45.3649 88.6637C45.6136 88.3467 45.8171 87.9575 45.8171 87.7989C45.8171 87.2204 45.3197 86.4385 44.8011 86.2013C44.1743 85.9149 39.3827 85.8972 38.686 86.1788ZM52.9373 86.412L52.3624 86.8653V93.2952C52.3624 101.147 52.1292 100.617 55.5814 100.617C58.1003 100.617 58.5102 100.486 58.8951 99.554C59.1133 99.0257 59.1006 98.7962 58.824 98.2595C58.4186 97.4736 58.1038 97.3353 56.7194 97.3353H55.6576L55.5917 92.1746L55.526 87.0139L54.9138 86.4862C54.1637 85.8397 53.6857 85.8217 52.9373 86.412ZM67.0796 86.4956L66.5439 87.0325V93.2878V99.5431L67.0796 100.08C67.3741 100.375 67.8694 100.617 68.1803 100.617C68.4912 100.617 68.9864 100.375 69.281 100.08C69.7708 99.589 69.8166 99.3735 69.8166 97.564V95.585L71.1802 95.5802C72.8678 95.5743 74.0198 95.0779 75.0779 93.901C76.6702 92.13 76.6804 89.547 75.1024 87.6982C73.8917 86.2799 72.9915 85.969 70.0795 85.9633C67.7507 85.9587 67.5855 85.988 67.0796 86.4956ZM72.5536 89.7774C73.2079 90.4333 73.2308 90.9697 72.637 91.7267C72.2477 92.223 72.0202 92.3033 71.0006 92.3033H69.8166V90.7718V89.2402H70.9173C71.7952 89.2402 72.1267 89.349 72.5536 89.7774Z" fill="#F178B6"/>
</svg>
